<?xml version="1.0" encoding="utf-8"?>
<!-- Generator: Adobe Illustrator 18.0.0, SVG Export Plug-In . SVG Version: 6.00 Build 0)  -->
<!DOCTYPE svg PUBLIC "-//W3C//DTD SVG 1.1//EN" "http://www.w3.org/Graphics/SVG/1.1/DTD/svg11.dtd">
<svg version="1.1" id="Layer_1" xmlns="http://www.w3.org/2000/svg" xmlns:xlink="http://www.w3.org/1999/xlink" x="0px" y="0px"
	 viewBox="0 0 18.4 19.5" enable-background="new 0 0 18.4 19.5" xml:space="preserve">
<g>
	<path fill="#FFFFFF" d="M9.2,19.5c-5.1,0-9.2-4.1-9.2-9.2c0-2.7,1.2-5.2,3.2-7c0.6-0.5,1.6-0.5,2.1,0.2c0.5,0.6,0.5,1.6-0.2,2.1
		C3.8,6.8,3,8.5,3,10.3c0,3.4,2.8,6.2,6.2,6.2s6.2-2.8,6.2-6.2c0-1.8-0.8-3.5-2.2-4.7c-0.6-0.5-0.7-1.5-0.2-2.1
		c0.5-0.6,1.5-0.7,2.1-0.2c2,1.7,3.2,4.3,3.2,7C18.4,15.4,14.2,19.5,9.2,19.5z"/>
</g>
<g>
	<path fill="#FFFFFF" d="M9.1,10c-0.8,0-1.5-0.7-1.5-1.5v-7C7.6,0.7,8.3,0,9.1,0s1.5,0.7,1.5,1.5v7C10.6,9.3,9.9,10,9.1,10z"/>
</g>
</svg>
